<?xml version="1.0" encoding="utf-8"?>
<!-- Generator: Adobe Illustrator 27.0.0, SVG Export Plug-In . SVG Version: 6.00 Build 0)  -->
<svg version="1.1" id="Capa_1" xmlns="http://www.w3.org/2000/svg" xmlns:xlink="http://www.w3.org/1999/xlink" x="0px" y="0px"
	 viewBox="0 0 512 512" style="enable-background:new 0 0 512 512;" xml:space="preserve">
<style type="text/css">
	.st0{fill:#808080;}
</style>
<path class="st0" d="M215.4,96H144h-36.2H96v8.8V144v40.4v89L0.2,202.5c1.6-18.1,10.9-34.9,25.7-45.8L48,140.3V96
	c0-26.5,21.5-48,48-48h76.6l49.9-36.9C232.2,3.9,243.9,0,256,0s23.8,3.9,33.5,11l49.9,37H416c26.5,0,48,21.5,48,48v44.3l22.1,16.4
	c14.8,10.9,24.1,27.7,25.7,45.8L416,273.4v-89V144v-39.2V96h-11.8H368h-71.4H215.4z M0,448V242.1l217.6,161.2
	c11.1,8.2,24.6,12.7,38.4,12.7s27.3-4.4,38.4-12.7L512,242.1V448l0,0c0,35.3-28.7,64-64,64H64C28.7,512,0,483.3,0,448L0,448z
	 M176,160h160c8.8,0,16,7.2,16,16s-7.2,16-16,16H176c-8.8,0-16-7.2-16-16S167.2,160,176,160z M176,224h160c8.8,0,16,7.2,16,16
	s-7.2,16-16,16H176c-8.8,0-16-7.2-16-16S167.2,224,176,224z"/>
</svg>
