<?xml version="1.0" encoding="utf-8"?>
<!-- Generator: Adobe Illustrator 27.0.0, SVG Export Plug-In . SVG Version: 6.00 Build 0)  -->
<svg version="1.1" id="Capa_1" xmlns="http://www.w3.org/2000/svg" xmlns:xlink="http://www.w3.org/1999/xlink" x="0px" y="0px"
	 viewBox="0 0 576 512" style="enable-background:new 0 0 576 512;" xml:space="preserve">
<style type="text/css">
	.st0{fill:#808080;}
</style>
<path class="st0" d="M482.3,192c34.2,0,93.7,29,93.7,64c0,36-59.5,64-93.7,64H365.7L265.2,495.9c-5.7,10-16.3,16.1-27.8,16.1h-56.2
	c-10.6,0-18.3-10.2-15.4-20.4l49-171.6H112l-43.2,57.6c-3,4-7.8,6.4-12.8,6.4H14c-7.8,0-14-6.3-14-14c0-1.3,0.2-2.6,0.5-3.9L32,256
	L0.5,145.9C0.1,144.6,0,143.3,0,142c0-7.8,6.3-14,14-14h42c5,0,9.8,2.4,12.8,6.4L112,192h102.9l-49-171.6
	c-3-10.2,4.7-20.4,15.3-20.4h56.2c11.5,0,22.1,6.2,27.8,16.1L365.7,192H482.3L482.3,192z"/>
</svg>
