<?xml version="1.0" encoding="utf-8"?>
<!-- Generator: Adobe Illustrator 27.0.0, SVG Export Plug-In . SVG Version: 6.00 Build 0)  -->
<svg version="1.1" id="Capa_1" xmlns="http://www.w3.org/2000/svg" xmlns:xlink="http://www.w3.org/1999/xlink" x="0px" y="0px"
	 viewBox="0 0 448 512" style="enable-background:new 0 0 448 512;" xml:space="preserve">
<style type="text/css">
	.st0{fill:#808080;}
</style>
<path class="st0" d="M64,32C28.7,32,0,60.7,0,96v320c0,35.3,28.7,64,64,64h320c35.3,0,64-28.7,64-64V96c0-35.3-28.7-64-64-64H64z
	 M336,152v104v104c0,13.3-10.7,24-24,24s-24-10.7-24-24v-80H160v80c0,13.3-10.7,24-24,24s-24-10.7-24-24V152c0-13.3,10.7-24,24-24
	s24,10.7,24,24v80h128v-80c0-13.3,10.7-24,24-24S336,138.7,336,152z"/>
</svg>
